<svg id="Layer_2" data-name="Layer 2" xmlns="http://www.w3.org/2000/svg" viewBox="0 0 52 43.84"><g id="Layer_1-2" data-name="Layer 1"><g><path d="M51.71,8.28s0,0,0,0L46.7.46c-.18-.29-.5-.46-.84-.46H6.11c-.34,0-.66.17-.84.46L.17,8.42s-.04.09-.06.14c-.01.03-.03.06-.04.09-.02.06-.03.12-.04.19,0,.05-.03.1-.03.16v4.65c.05,1.28.88,2.5,2.16,3.17.01,0,.03.01.04.02v25.98c0,.55.45,1,1,1,.01,0,.02,0,.03,0,.07.02.13.04.21.04h45.33c.07,0,.13-.03.2-.04,0,0,.01,0,.02,0,.55,0,1-.45,1-1v-26.09c1.19-.69,1.95-1.85,2-3.11v-4.61c0-.27-.1-.52-.29-.71ZM48,41.84h-14.74v-18.37c0-.55-.45-1-1-1h-12.39c-.55,0-1,.45-1,1v18.37H4.21v-24.53h3.03s3.15,0,3.15,0c.65,0,1.32-.17,1.93-.5.45-.24.84-.54,1.17-.9.32.35.71.66,1.16.89.62.33,1.29.5,1.94.5h3.13s3.15,0,3.15,0c.65,0,1.32-.17,1.93-.5.46-.24.86-.56,1.19-.92.33.36.73.67,1.19.92.62.33,1.29.5,1.94.5h3.04s3.25,0,3.25,0c.65,0,1.32-.17,1.93-.5.45-.24.84-.54,1.16-.89.32.35.71.65,1.16.89.62.33,1.29.5,1.94.5h3.23s3.06,0,3.06,0c.03,0,.07,0,.1,0v24.53ZM31.27,41.84h-10.39v-17.37h10.39v17.37ZM25,2v5.96h-10.14l2.18-5.96h7.97ZM34.94,2l2.18,5.96h-10.11V2h7.94ZM24.98,9.99v3.57c-.02.57-.44,1.14-1.1,1.48-.33.17-.67.27-1.01.27h-6.27c-.32,0-.67-.09-1-.27-.65-.34-1.07-.91-1.09-1.44v-3.61s10.48,0,10.48,0ZM37.52,13.58c-.03.56-.45,1.12-1.1,1.47-.33.18-.64.25-1.01.27h-6.27c-.32,0-.67-.09-1-.27-.65-.34-1.07-.91-1.1-1.44v-3.61s10.48,0,10.48,0v3.58ZM50,13.56c-.02.57-.44,1.14-1.1,1.48-.33.17-.67.27-1.01.27h-6.27c-.32,0-.67-.09-1-.27-.65-.34-1.07-.9-1.09-1.43,0,0,0,0,0,0v-3.61h10.48v3.57ZM49.12,7.96h-9.88l-2.18-5.96h8.25l3.81,5.96ZM6.65,2h8.25l-2.18,5.96H2.84l3.81-5.96ZM2,13.6v-3.61s10.48,0,10.48,0v3.57c-.02.57-.44,1.14-1.11,1.48-.33.18-.63.25-1.01.27h-6.27c-.32,0-.67-.09-1-.27-.65-.34-1.07-.91-1.09-1.44Z" style="fill: currentColor;"/><path d="M15.32,22.41h-7.56c-.55,0-1,.45-1,1v11.18c0,.55.45,1,1,1h7.56c.55,0,1-.45,1-1v-11.18c0-.55-.45-1-1-1ZM14.32,33.58h-5.56v-9.18h5.56v9.18Z" style="fill: currentColor;"/><path d="M44.49,22.41h-7.56c-.55,0-1,.45-1,1v11.18c0,.55.45,1,1,1h7.56c.55,0,1-.45,1-1v-11.18c0-.55-.45-1-1-1ZM43.49,33.58h-5.56v-9.18h5.56v9.18Z" style="fill: currentColor;"/><circle cx="28.95" cy="33.72" r="1.05" style="fill: currentColor;"/></g></g></svg>